<?xml version="1.0" encoding="UTF-8"?>
<svg version="1.1" xmlns="http://www.w3.org/2000/svg" width="838" height="192">
<path d="M0 0 C0.79566376 -0.00191345 1.59132751 -0.0038269 2.41110229 -0.00579834 C4.09731359 -0.0071595 5.78353539 -0.00346785 7.46972656 0.00488281 C10.02433522 0.01549887 12.57822696 0.00502958 15.1328125 -0.0078125 C16.7760432 -0.00648924 18.41927345 -0.00392341 20.0625 0 C20.8159671 -0.00404846 21.5694342 -0.00809692 22.34573364 -0.01226807 C31.11511657 0.06342283 38.2640177 2.08435056 45.9296875 6.265625 C45.9296875 6.925625 45.9296875 7.585625 45.9296875 8.265625 C46.5278125 8.53375 47.1259375 8.801875 47.7421875 9.078125 C49.92816604 10.26479906 51.34301344 11.36161613 52.9296875 13.265625 C52.9296875 13.925625 52.9296875 14.585625 52.9296875 15.265625 C53.5896875 15.265625 54.2496875 15.265625 54.9296875 15.265625 C57.92640402 20.48625123 60.9183009 25.70961821 63.90234375 30.9375 C64.40773682 31.82276367 64.91312988 32.70802734 65.43383789 33.62011719 C67.42960558 37.14976281 69.38418201 40.70051838 71.30859375 44.26953125 C74.10892521 49.44508361 76.9581131 54.59388065 79.79711914 59.74829102 C82.1317297 63.98939475 84.46007489 68.2337681 86.77734375 72.484375 C90.12263635 78.62046796 93.46970645 84.75550825 96.83374023 90.88134766 C97.52229148 92.13677844 98.20946844 93.39296394 98.89526367 94.64990234 C108.87254 112.93087803 118.66171628 130.22582525 139.8671875 136.578125 C145.43130713 138.0152155 151.01050582 139.06700883 156.69921875 139.87109375 C158.9296875 140.265625 158.9296875 140.265625 159.9296875 141.265625 C159.6796875 144.703125 159.6796875 144.703125 158.9296875 148.265625 C155.31024228 150.67858848 153.6300324 150.52383472 149.32202148 150.5402832 C148.65489639 150.54539413 147.9877713 150.55050507 147.3004303 150.55577087 C145.09212284 150.56968192 142.88412737 150.56870763 140.67578125 150.56640625 C139.13460678 150.5702952 137.59343338 150.57463028 136.05226135 150.57939148 C132.81662532 150.586859 129.58109835 150.58656067 126.34545898 150.58129883 C122.22218481 150.57553371 118.09936416 150.59236023 113.97616482 150.6156435 C110.78887875 150.63047008 107.60169929 150.63123998 104.41438484 150.62813377 C102.89591646 150.62864352 101.37744156 150.63381542 99.85900688 150.64394569 C87.36396903 150.71701216 76.7259554 149.61916981 66.9296875 141.265625 C60.03922208 134.28204518 55.53672207 125.68296889 50.92871094 117.12109375 C49.6142791 114.6798225 48.26927443 112.25566375 46.9296875 109.828125 C45.26797381 106.77183961 43.63184864 103.70362867 42.01953125 100.62109375 C36.60075007 90.27465959 30.91763876 80.09628293 25.1484375 69.94140625 C20.68382897 62.08183498 16.29679377 54.17969415 11.9296875 46.265625 C11.39085938 45.28980469 10.85203125 44.31398437 10.296875 43.30859375 C6.88498618 37.09075265 3.5690868 30.82315266 0.26123047 24.54956055 C-2.3935147 19.52067599 -5.10439948 14.52657479 -7.87890625 9.5625 C-9.1142062 7.1810037 -10.11519216 4.77114997 -11.0703125 2.265625 C-7.31335806 -0.23901129 -4.34980295 -0.02300121 0 0 Z " fill="#EC4F37" transform="translate(20.0703125,17.734375)"/>
<path d="M0 0 C0.79849365 -0.0033284 1.5969873 -0.0066568 2.41967773 -0.01008606 C4.11783267 -0.01516274 5.81599764 -0.01749416 7.51416016 -0.01733398 C10.08643681 -0.0194988 12.65826933 -0.03758546 15.23046875 -0.05664062 C16.88281104 -0.05957892 18.53515536 -0.06156079 20.1875 -0.0625 C21.32711182 -0.07327827 21.32711182 -0.07327827 22.48974609 -0.08427429 C31.28703037 -0.04754279 38.43657761 1.97428381 46.125 6.16796875 C46.125 6.82796875 46.125 7.48796875 46.125 8.16796875 C47.445 8.49796875 48.765 8.82796875 50.125 9.16796875 C50.125 9.82796875 50.125 10.48796875 50.125 11.16796875 C50.785 11.16796875 51.445 11.16796875 52.125 11.16796875 C53.60546875 13.15234375 53.60546875 13.15234375 55.3125 15.91796875 C55.93382812 16.9234375 56.55515625 17.92890625 57.1953125 18.96484375 C63.48234335 29.40080589 69.36224695 40.02574242 75.1328125 50.75390625 C81.44617158 62.48675975 87.90270581 74.11942538 94.546875 85.66796875 C96.51038388 89.08374385 98.43588176 92.51594276 100.3125 95.98046875 C100.75464844 96.79 101.19679688 97.59953125 101.65234375 98.43359375 C102.47047507 99.95267048 103.28397603 101.47436187 104.07861328 103.00585938 C112.49638379 119.20742604 122.66235788 130.59283164 140.5625 136.48046875 C146.99660985 138.29541741 153.4979978 139.34366078 160.125 140.16796875 C160.9375 142.35546875 160.9375 142.35546875 161.125 145.16796875 C158.58954755 148.40169122 157.06042867 149.983229 152.97824097 150.78942871 C151.20599655 150.78634705 151.20599655 150.78634705 149.39794922 150.78320312 C148.74189194 150.78875214 148.08583466 150.79430115 147.40989685 150.80001831 C145.24907436 150.81179064 143.09036231 150.78755334 140.9296875 150.76171875 C139.41618953 150.76000565 137.90268859 150.76007536 136.38919067 150.76184082 C133.2165283 150.76018851 130.04457324 150.74152055 126.87207031 150.70996094 C122.83406512 150.67048677 118.79699422 150.66589262 114.75883293 150.67342377 C111.63064233 150.67651738 108.50265599 150.66428554 105.37451553 150.64729309 C103.88759776 150.6403277 102.40065683 150.63713059 100.91372299 150.63798523 C87.25180177 150.62606229 75.95215313 149.13811673 65.515625 139.71484375 C60.23047092 134.08871199 56.8032037 126.89587132 53.125 120.16796875 C52.38636719 118.83958984 52.38636719 118.83958984 51.6328125 117.484375 C49.35045507 113.35163174 47.13123853 109.18846359 44.953125 105 C40.11949351 95.71667109 35.11103059 86.57221354 29.87524414 77.50952148 C25.1274188 69.25423923 20.62411898 60.87482215 16.13037109 52.47924805 C12.97653669 46.59217802 9.79537264 40.72700679 6.5 34.91796875 C5.81236897 33.69929268 5.12487141 32.48054128 4.4375 31.26171875 C3.15134881 28.98193451 1.86123456 26.7045613 0.56640625 24.4296875 C-1.13452101 21.43244154 -2.81828019 18.42602608 -4.5 15.41796875 C-5.0460791 14.46374023 -5.5921582 13.50951172 -6.15478516 12.52636719 C-6.65284668 11.62950195 -7.1509082 10.73263672 -7.6640625 9.80859375 C-8.11475098 9.00969727 -8.56543945 8.21080078 -9.02978516 7.38769531 C-10.01042461 4.8123129 -9.87545807 3.6987442 -8.875 1.16796875 C-6.85900495 -0.8480263 -2.76537901 0.00396603 0 0 Z " fill="#F06831" transform="translate(126.875,17.83203125)"/>
<path d="M0 0 C1.51770493 -0.01429802 1.51770493 -0.01429802 3.06607056 -0.02888489 C4.70664932 -0.02751778 4.70664932 -0.02751778 6.38037109 -0.02612305 C7.50897552 -0.03040817 8.63757996 -0.0346933 9.80038452 -0.03910828 C12.19276255 -0.04485695 14.58515805 -0.0453479 16.97753906 -0.04101562 C20.61863579 -0.03787216 24.25890709 -0.06125156 27.89990234 -0.08666992 C30.22672424 -0.08894466 32.55354831 -0.0896456 34.88037109 -0.08862305 C36.50273178 -0.10243767 36.50273178 -0.10243767 38.15786743 -0.11653137 C47.97473006 -0.05720643 55.1732185 1.67852198 62.37255859 8.52075195 C66.42823021 12.81555515 68.2312836 17.4815253 69.02880859 23.2746582 C68.77880859 26.8371582 68.77880859 26.8371582 68.02880859 30.2746582 C67.82255859 31.4090332 67.61630859 32.5434082 67.40380859 33.7121582 C64.72794054 40.64508908 59.46136744 45.7010144 53.02880859 49.2746582 C46.71757052 51.30132733 39.49456809 51.00225937 33.21630859 49.1496582 C25.51703755 44.62067523 21.46053921 39.53483682 17.73583984 31.4777832 C13.56464667 22.66571828 8.68366413 13.76683999 -0.97119141 10.2746582 C-3.29548019 9.53918346 -5.60968357 8.88865024 -7.97119141 8.2746582 C-8.15869141 5.3996582 -8.15869141 5.3996582 -7.97119141 2.2746582 C-4.71242844 0.10214956 -3.77207568 0.01952818 0 0 Z " fill="#F17334" transform="translate(218.97119140625,17.725341796875)"/>
<path d="M0 0 C1.72527018 2.35433548 2.73126814 4.13604593 3.84765625 6.765625 C4.17443863 7.47454895 4.50122101 8.1834729 4.83790588 8.91387939 C5.54469859 10.45599902 6.2391616 12.00381565 6.92266846 13.55639648 C8.01212802 16.02750877 9.1355335 18.48045124 10.26904297 20.93164062 C12.69272089 26.18920117 15.06679929 31.46839051 17.4375 36.75 C18.64069607 39.42106116 19.84478675 42.0917177 21.04898071 44.7623291 C21.84328087 46.52697259 22.6355984 48.29250992 23.4258728 50.05895996 C25.44962971 54.58050127 27.5006111 59.08623789 29.60205078 63.57226562 C30.02067886 64.47535461 30.43930695 65.3784436 30.87062073 66.30889893 C31.66669913 68.02442487 32.47149027 69.73594478 33.28648376 71.44256592 C35.27274347 75.74890908 36.69923566 79.14838735 36 84 C34 86 34 86 30.875 86.125 C29.92625 86.08375 28.9775 86.0425 28 86 C26.705826 83.43873936 25.41459216 80.87606642 24.125 78.3125 C23.76019531 77.59126953 23.39539063 76.87003906 23.01953125 76.12695312 C22.66503906 75.42119141 22.31054688 74.71542969 21.9453125 73.98828125 C21.62062988 73.34415283 21.29594727 72.70002441 20.96142578 72.03637695 C19.87499374 69.73522671 18.94508726 67.36271816 18 65 C3.15 64.67 -11.7 64.34 -27 64 C-27.99 66.97 -28.98 69.94 -30 73 C-30.99146201 75.1900952 -32.02787458 77.36088109 -33.125 79.5 C-33.64320313 80.5209375 -34.16140625 81.541875 -34.6953125 82.59375 C-36 85 -36 85 -37 86 C-43.72 85.28 -43.72 85.28 -45 84 C-44.7506095 76.887383 -41.51122405 70.9255823 -38.5625 64.5625 C-37.99327945 63.31724357 -37.42502845 62.07154357 -36.85766602 60.82543945 C-35.93500024 58.8001274 -35.01128966 56.7753295 -34.08415222 54.75205994 C-31.45144148 49.00652796 -28.85730981 43.24420366 -26.2734375 37.4765625 C-25.8727153 36.58265305 -25.4719931 35.68874359 -25.05912781 34.76774597 C-23.4570779 31.19390514 -21.85518239 27.61999546 -20.25418091 24.04568481 C-19.1281997 21.53358895 -17.99991912 19.02253763 -16.87109375 16.51171875 C-16.53923065 15.77003448 -16.20736755 15.02835022 -15.865448 14.26419067 C-14.24601899 10.66679638 -12.59341319 7.08564439 -10.88305664 3.53051758 C-10.56994034 2.8764241 -10.25682404 2.22233063 -9.93421936 1.54841614 C-7.58534701 -2.3447079 -3.79293921 -1.03371616 0 0 Z M-5 14 C-7.26691652 19.03247088 -9.52704758 24.06791315 -11.78100586 29.10620117 C-12.54836291 30.81894469 -13.31755193 32.53086868 -14.08862305 34.24194336 C-15.19805412 36.70472298 -16.30081499 39.17039638 -17.40234375 41.63671875 C-17.91957253 42.77919319 -17.91957253 42.77919319 -18.44725037 43.94474792 C-18.76750687 44.66511734 -19.08776337 45.38548676 -19.41772461 46.12768555 C-19.69974228 46.75611862 -19.98175995 47.3845517 -20.27232361 48.0320282 C-21.22615059 50.45418327 -21.22615059 50.45418327 -22 55 C-10.12 55 1.76 55 14 55 C9.98184189 45.12930726 5.88848163 35.2943891 1.6875 25.5 C1.25518066 24.47898193 0.82286133 23.45796387 0.37744141 22.40600586 C-0.23671631 20.98300171 -0.23671631 20.98300171 -0.86328125 19.53125 C-1.22719971 18.68111328 -1.59111816 17.83097656 -1.96606445 16.95507812 C-2.84453401 14.83540061 -2.84453401 14.83540061 -5 14 Z " fill="#1E1E1E" transform="translate(348,74)"/>
<path d="M0 0 C1.99609375 1.5 1.99609375 1.5 3.99609375 4.5 C3.62109375 8.1875 3.62109375 8.1875 2.99609375 11.5 C-1.55987168 12.20091776 -3.90408957 11.14820146 -7.56640625 8.625 C-8.28957031 8.09132813 -9.01273437 7.55765625 -9.7578125 7.0078125 C-16.75231923 2.31236972 -25.71011325 1.65738634 -33.87890625 3.125 C-39.11035487 4.53967485 -42.54471486 7.15260516 -45.44140625 11.8125 C-46.2311309 15.58562888 -46.16949912 18.80895591 -45.00390625 22.5 C-38.63666446 29.89421628 -25.75833805 31.81490539 -16.68359375 34.12304688 C-7.94931254 36.48001835 -1.26440174 40.00777915 3.99609375 47.5 C6.16927458 52.51503269 5.50344143 58.63512543 3.74609375 63.6875 C0.902296 70.39729009 -3.51732857 74.35063946 -10.00390625 77.5 C-22.44602844 81.91395435 -38.05818865 80.83781347 -50.00390625 75.5 C-57.42117992 71.66545265 -57.42117992 71.66545265 -59.00390625 68.5 C-59.04413016 66.1670134 -59.04710872 63.83293334 -59.00390625 61.5 C-56.00570498 60.58727324 -54.56035527 60.2344008 -51.6796875 61.609375 C-50.89980469 62.15078125 -50.11992187 62.6921875 -49.31640625 63.25 C-39.55755782 69.43012492 -28.92893352 71.40070025 -17.47265625 68.9609375 C-13.50065673 67.61223617 -10.31874369 66.01855291 -8.00390625 62.5 C-6.88619741 58.36292491 -6.6227882 54.81925479 -7.81640625 50.6875 C-13.58561575 44.9182905 -23.31810978 43.53005507 -31.00390625 41.625 C-40.10162639 39.25072435 -47.35503812 36.56775962 -54.50390625 30.3125 C-57.91774068 23.91156045 -58.85261813 16.63673866 -56.89453125 9.6328125 C-53.93267751 2.53995224 -48.95524728 -2.34602679 -41.9296875 -5.40234375 C-27.55941589 -10.55663952 -12.69003271 -7.7967561 0 0 Z " fill="#1E1E1E" transform="translate(476.00390625,80.5)"/>
<path d="M0 0 C3.17751621 2.68956125 3.62007347 3.26945552 4.3125 7.5625 C3.6875 10.6875 3.6875 10.6875 2.6875 11.6875 C-1.52398052 11.51904078 -4.30746122 10.92282095 -7.5625 8.3125 C-14.95356161 2.66244401 -23.44289853 2.17965932 -32.421875 3.1796875 C-37.20830714 4.0205472 -40.06335082 5.60271256 -43.6875 8.75 C-46.06926785 13.05550342 -46.19331044 16.87875111 -45.3125 21.6875 C-39.85428717 30.05675967 -27.37238493 31.60285483 -18.26513672 33.76171875 C-9.0466612 36.02877524 -1.95606318 39.28497528 3.5 47.375 C5.70793267 53.53397008 5.50988166 59.34166024 3.125 65.4375 C-0.51279823 72.59941526 -6.28693049 76.51531304 -13.83203125 78.9921875 C-26.59227376 81.54137175 -41.56868673 81.09840914 -52.84375 74.12109375 C-55.14481885 72.43985507 -57.29742705 70.70257295 -59.3125 68.6875 C-59.5 65.75 -59.5 65.75 -59.3125 62.6875 C-58.3225 61.6975 -58.3225 61.6975 -57.3125 60.6875 C-52.20434312 61.05236835 -47.91390314 63.80342012 -43.484375 66.16015625 C-35.3899007 70.36576355 -26.2478514 71.12637307 -17.34765625 68.96875 C-13.59150803 67.60087223 -10.94736601 66.35971107 -8.1875 63.4375 C-7.00247022 59.71312068 -6.52024483 56.54680241 -7.3125 52.6875 C-12.24355575 45.20589817 -22.7420903 43.80090525 -30.875 41.6875 C-50.63711958 36.54090528 -50.63711958 36.54090528 -55.625 28.1875 C-58.44298308 21.97407829 -58.39594077 15.39620109 -56.5 8.90625 C-53.25061157 1.41460446 -48.30988762 -2.05810387 -41.03515625 -5.33984375 C-27.59038193 -10.19427974 -11.69955378 -8.10390309 0 0 Z " fill="#1D1D1D" transform="translate(574.3125,80.3125)"/>
<path d="M0 0 C2.36801327 1.91165097 3.58128485 3.34067727 5.3125 5.9375 C4.77195946 10.47804054 4.77195946 10.47804054 3.3125 11.9375 C-1.1928688 12.48885632 -3.32357004 11.15142644 -6.9375 8.5625 C-13.88092278 3.94288404 -20.32104565 2.2036005 -28.6875 2.9375 C-34.99835441 4.20960924 -39.60390768 5.66834862 -43.6875 10.9375 C-45.04108109 14.99824327 -45.44513367 18.96751488 -43.88085938 23.03491211 C-39.33230915 30.28672306 -25.19728274 31.78638107 -17.59765625 33.84960938 C-8.67601088 36.37094394 -1.05879955 38.98797666 4.3125 46.9375 C6.80420405 51.9209081 6.16659742 59.94815903 4.6640625 65.20703125 C1.1664719 71.82853825 -5.43263718 76.71371572 -12.359375 79.2421875 C-26.7462052 82.24788677 -41.22619892 80.56100922 -53.875 73.0625 C-56.8186041 70.95611663 -57.5741533 70.24174639 -58.875 66.75 C-58.6875 63.9375 -58.6875 63.9375 -56.6875 60.9375 C-52.74717192 61.23302461 -50.15524624 62.13463516 -46.9375 64.3125 C-37.72453219 70.30962056 -26.90543665 71.57347813 -16.15625 69.43359375 C-11.69087234 67.97568127 -8.99796375 66.0039162 -6.6875 61.9375 C-5.81131279 58.43275118 -5.54528673 55.81109578 -6.125 52.25 C-10.56147005 45.68402433 -20.9963041 44.30125373 -28.1875 42.4375 C-48.55307109 37.1593224 -48.55307109 37.1593224 -54.6875 27.9375 C-57.44600377 22.04433285 -57.56373428 15.99711906 -55.5625 9.875 C-52.33407355 2.28745397 -47.49486514 -1.61412042 -40.15234375 -5.1171875 C-27.51113566 -9.96532119 -10.9154066 -7.87244253 0 0 Z " fill="#1C1C1C" transform="translate(726.6875,80.0625)"/>
<path d="M0 0 C0.9904834 -0.0076664 0.9904834 -0.0076664 2.00097656 -0.01548767 C4.18824269 -0.02941183 6.37519477 -0.02842503 8.5625 -0.02612305 C10.07942828 -0.0300081 11.59635548 -0.03434237 13.11328125 -0.03910828 C16.29430669 -0.0465763 19.47522116 -0.04627479 22.65625 -0.04101562 C26.73886413 -0.03521646 30.82102526 -0.05215955 34.90356445 -0.0753603 C38.03648549 -0.09006893 41.16929665 -0.09097336 44.30224609 -0.08785057 C45.80778909 -0.08836511 47.31333802 -0.09362768 48.81884766 -0.10366249 C50.9212009 -0.11595637 53.02266177 -0.10927926 55.125 -0.09765625 C56.32253906 -0.09828568 57.52007813 -0.0989151 58.75390625 -0.0995636 C60.14416016 0.08567619 60.14416016 0.08567619 61.5625 0.2746582 C63.5625 3.2746582 63.5625 3.2746582 63.25 5.8996582 C62.5625 8.2746582 62.5625 8.2746582 61.5625 9.2746582 C59.41691173 9.36241425 57.26845579 9.38161039 55.12109375 9.37231445 C53.81591797 9.3690918 52.51074219 9.36586914 51.16601562 9.36254883 C49.7773431 9.35419221 48.38867123 9.34572725 47 9.3371582 C45.60742344 9.33214486 44.21484519 9.32758167 42.82226562 9.32348633 C39.4023013 9.31165254 35.98242156 9.295167 32.5625 9.2746582 C32.56694122 10.20982269 32.57138245 11.14498718 32.57595825 12.10848999 C32.61644674 20.90810596 32.64645663 29.7077031 32.66612434 38.50739098 C32.67657551 43.0317408 32.6907589 47.55601562 32.71337891 52.08032227 C32.73505993 56.44397344 32.74705858 60.80755233 32.75225449 65.1712532 C32.75595879 66.83868168 32.76319207 68.50610606 32.77396011 70.17350388 C32.7884122 72.50337115 32.79048061 74.83293714 32.78955078 77.1628418 C32.79674133 77.85695663 32.80393188 78.55107147 32.81134033 79.26622009 C32.79060432 84.04655388 32.79060432 84.04655388 30.5625 86.2746582 C27.625 86.6496582 27.625 86.6496582 24.5625 86.2746582 C22.05411677 83.90728602 21.58461265 82.47400966 21.20173645 79.02227783 C21.20839828 77.73432312 21.21506012 76.44636841 21.22192383 75.11938477 C21.22126671 74.05049263 21.22126671 74.05049263 21.22059631 72.96000671 C21.22268149 70.611484 21.2459988 68.26368076 21.26953125 65.9152832 C21.27512819 64.28432607 21.27939783 62.65336389 21.28239441 61.0223999 C21.29383551 56.73478206 21.32329622 52.44747027 21.35650635 48.15997314 C21.38722315 43.78287903 21.40090318 39.40573534 21.41601562 35.02856445 C21.44816676 26.44378877 21.49935405 17.85926158 21.5625 9.2746582 C20.72477051 9.28513184 19.88704102 9.29560547 19.02392578 9.30639648 C15.91911836 9.34045839 12.81440608 9.36554731 9.70947266 9.38452148 C7.7033864 9.39953928 5.69738676 9.42494801 3.69140625 9.45043945 C2.43457031 9.45688477 1.17773438 9.46333008 -0.1171875 9.4699707 C-1.27976074 9.48044434 -2.44233398 9.49091797 -3.64013672 9.50170898 C-6.4375 9.2746582 -6.4375 9.2746582 -8.4375 7.2746582 C-8.6875 4.7746582 -8.6875 4.7746582 -8.4375 2.2746582 C-5.6429098 -0.519932 -3.91491514 0.01506218 0 0 Z " fill="#181818" transform="translate(770.4375,73.725341796875)"/>
<path d="M0 0 C1.54295904 3.08591809 1.14729262 6.33606586 1.14526367 9.72265625 C1.15030159 10.91796463 1.15030159 10.91796463 1.15544128 12.13742065 C1.1649629 14.77912949 1.16689488 17.42077506 1.16796875 20.0625 C1.17118006 21.89331082 1.17454403 23.72412137 1.17805481 25.55493164 C1.18404881 29.39502559 1.18589439 33.23509702 1.18530273 37.07519531 C1.185201 42.00517094 1.1988639 46.93500292 1.21607494 51.86494446 C1.22717083 55.64636911 1.2292227 59.42775873 1.22869301 63.209198 C1.22987636 65.02733862 1.2343179 66.84548006 1.24202538 68.66360474 C1.25177849 71.20162144 1.24896611 73.73932241 1.24291992 76.27734375 C1.24853943 77.03377167 1.25415894 77.79019958 1.25994873 78.56954956 C1.22831685 83.77168315 1.22831685 83.77168315 -1 86 C-3.9375 86.375 -3.9375 86.375 -7 86 C-9.58621668 83.59459114 -9.98656425 82.12261952 -10.3742218 78.5847168 C-10.38896014 77.20629609 -10.38718166 75.82763807 -10.37231445 74.44921875 C-10.37596512 73.69428131 -10.37961578 72.93934387 -10.38337708 72.16152954 C-10.39147266 69.66995641 -10.37788108 67.17903567 -10.36328125 64.6875 C-10.36276252 62.95402019 -10.36328071 61.22053978 -10.36479187 59.48706055 C-10.36470219 55.85554208 -10.35428167 52.22424581 -10.33618164 48.59277344 C-10.31349464 43.93878353 -10.31295085 39.28511825 -10.31969929 34.63108826 C-10.32304142 31.05201332 -10.31640456 27.47301233 -10.30657005 23.89395142 C-10.30272199 22.17795194 -10.30156821 20.46194422 -10.3031559 18.74594116 C-10.30352693 16.3473952 -10.29089595 13.94926476 -10.2746582 11.55078125 C-10.27713562 10.84208893 -10.27961304 10.13339661 -10.28216553 9.40322876 C-10.24322239 5.79726546 -10.09572882 3.00894966 -8 0 C-5.09660535 -1.45169732 -3.09125158 -0.72348441 0 0 Z " fill="#1D1D1D" transform="translate(628,74)"/>
<path d="M0 0 C0.66 0.33 1.32 0.66 2 1 C-1.63 4.63 -5.26 8.26 -9 12 C-9 8.47601214 -8.44884893 7.98495633 -6.1875 5.4375 C-5.40439453 4.53837891 -5.40439453 4.53837891 -4.60546875 3.62109375 C-3 2 -3 2 0 0 Z " fill="#646464" transform="translate(682,77)"/>
<path d="M0 0 C-1.5830577 4.2742558 -4.50568404 6.26531794 -8 9 C-6.68994234 5.06982701 -4.75047804 0 0 0 Z " fill="#696969" transform="translate(429,79)"/>
<path d="M0 0 C0.66 0.33 1.32 0.66 2 1 C0.02 2.98 -1.96 4.96 -4 7 C-4.66 6.67 -5.32 6.34 -6 6 C-4 4 -2 2 0 0 Z " fill="#6D6D6D" transform="translate(527,78)"/>
</svg>
