<?xml version="1.0" encoding="UTF-8"?>
<svg version="1.1" xmlns="http://www.w3.org/2000/svg" width="702" height="149">
<path d="M0 0 C2.11625391 -0.01698937 4.230851 -0.06081404 6.34667969 -0.10522461 C17.00398132 -0.22766629 26.93957367 1.33086406 35.41308594 8.33813477 C43.49730603 16.79365515 48.40698499 29.00467522 53.86865234 39.22949219 C58.03210423 47.01701706 62.31136847 54.72226468 66.73535156 62.36450195 C69.50610945 67.15721396 72.21496396 71.97594668 74.86230469 76.83813477 C75.47332031 77.95309326 76.08433594 79.06805176 76.71386719 80.21679688 C77.89004197 82.36738577 79.05735742 84.5228544 80.21386719 86.68408203 C87.89357029 100.66837552 97.88015386 109.61090085 113.28417969 114.29516602 C117.26635387 115.12557201 121.25122177 115.76852546 125.28417969 116.29516602 C125.97167969 118.60766602 125.97167969 118.60766602 126.28417969 121.29516602 C125.16604614 122.93788147 125.16604614 122.93788147 123.28417969 124.29516602 C120.66818237 124.68284607 120.66818237 124.68284607 117.48681641 124.69921875 C115.69883133 124.71824501 115.69883133 124.71824501 113.87472534 124.73765564 C112.58414215 124.73472 111.29355896 124.73178436 109.96386719 124.72875977 C108.6220778 124.73332343 107.28029075 124.73862956 105.93850708 124.74464417 C103.12231985 124.75358413 100.30641595 124.75114635 97.49023438 124.74121094 C93.90250271 124.72978021 90.31576398 124.74983531 86.72816277 124.77912807 C83.9535003 124.79759841 81.17907033 124.7971753 78.40436172 124.79149055 C76.44531315 124.79126483 74.48628619 124.8080881 72.52731323 124.82530212 C62.48413953 124.74749695 54.7561706 122.65092132 47.29980469 115.69360352 C43.25489911 110.88047944 40.51084616 105.22917697 37.58056641 99.69897461 C35.17697527 95.2421463 32.62448665 90.86980765 30.09667969 86.48266602 C25.39814035 78.27752568 20.76907112 70.04891867 16.38574219 61.67016602 C12.0305964 53.35982653 7.54093557 45.14253582 2.90917969 36.98266602 C2.36302002 36.01772217 1.81686035 35.05277832 1.25415039 34.05859375 C-0.95204354 30.16192688 -3.15875811 26.26579484 -5.38769531 22.38208008 C-6.96624804 19.62994857 -8.52973114 16.86973005 -10.09082031 14.10766602 C-10.57341309 13.2764624 -11.05600586 12.44525879 -11.55322266 11.58886719 C-11.98586426 10.81776611 -12.41850586 10.04666504 -12.86425781 9.25219727 C-13.24759277 8.58164307 -13.63092773 7.91108887 -14.02587891 7.22021484 C-14.87963298 4.83810201 -14.59059481 3.63640013 -13.71582031 1.29516602 C-11.08982704 -1.33082726 -3.75845549 0.02095634 0 0 Z " fill="#E55D26" transform="translate(115.7158203125,9.704833984375)"/>
<path d="M0 0 C4.23173639 -0.07497625 8.46310588 -0.12898541 12.6953125 -0.16479492 C14.1306025 -0.17974586 15.56584791 -0.20011424 17.00097656 -0.22631836 C29.1817329 -0.44292177 39.74360435 0.20354948 49 9 C53.94416591 14.15764458 57.10303935 20.28537216 60.47155762 26.5307312 C61.87654536 29.1356285 63.29567718 31.73272269 64.71429443 34.33021545 C65.43654237 35.65270449 66.15809918 36.9755712 66.87896729 38.29881287 C70.10523109 44.21499693 73.41516087 50.08186976 76.75 55.9375 C79.96410912 61.58326464 83.14600153 67.24095933 86.2265625 72.9609375 C86.75540039 73.94199463 87.28423828 74.92305176 87.82910156 75.93383789 C88.81854881 77.77631617 89.80278017 79.62161097 90.78027344 81.47045898 C98.87940802 96.56022775 107.31452495 107.37822985 123.97265625 113.00390625 C128.94033983 114.41836361 133.86852537 115.42983615 139 116 C139.6875 117.75 139.6875 117.75 140 120 C138.88186646 122.10827637 138.88186646 122.10827637 137 124 C134.38400269 124.50793457 134.38400269 124.50793457 131.20263672 124.51757812 C129.41465164 124.53649109 129.41465164 124.53649109 127.59054565 124.55578613 C125.65467087 124.54364075 125.65467087 124.54364075 123.6796875 124.53125 C122.33789794 124.53394642 120.99611029 124.53783009 119.65432739 124.54284668 C116.83804779 124.54874702 114.02227531 124.54017074 111.20605469 124.52148438 C107.61828049 124.49882496 104.03171187 124.5117294 100.44398308 124.53577423 C97.66929293 124.55033154 94.89488127 124.54557911 92.12018204 124.53526306 C90.16115786 124.5313381 88.20212236 124.54337897 86.24313354 124.55578613 C76.13953268 124.45058143 68.48278837 122.33636609 61.01171875 115.3203125 C53.01520013 106.09714345 47.81388964 94.06374556 42.07714844 83.38647461 C38.32814632 76.41313575 34.48339221 69.50297301 30.5625 62.625 C25.27328765 53.33402823 20.15351005 43.96062009 15.12304688 34.52709961 C12.3555475 29.34272895 9.55744653 24.1858389 6.63671875 19.0859375 C6.11674316 18.17094482 5.59676758 17.25595215 5.06103516 16.31323242 C4.08964923 14.61117058 3.10690009 12.91552403 2.11083984 11.2277832 C1.68367676 10.47585693 1.25651367 9.72393066 0.81640625 8.94921875 C0.43943604 8.30299561 0.06246582 7.65677246 -0.32592773 6.9909668 C-1.21155506 4.37514252 -0.71456787 2.62425265 0 0 Z " fill="#DF432B" transform="translate(14,10)"/>
<path d="M0 0 C1.25237961 -0.01429802 1.25237961 -0.01429802 2.53005981 -0.02888489 C3.88779007 -0.02751778 3.88779007 -0.02751778 5.27294922 -0.02612305 C6.20557587 -0.03040817 7.13820251 -0.0346933 8.09909058 -0.03910828 C10.07793364 -0.04486043 12.05679785 -0.04534535 14.03564453 -0.04101562 C17.04480881 -0.03787605 20.05297056 -0.06123236 23.06201172 -0.08666992 C24.98648965 -0.08894505 26.91097021 -0.08964542 28.83544922 -0.08862305 C29.72845734 -0.09783279 30.62146545 -0.10704254 31.54153442 -0.11653137 C39.36908278 -0.05942867 46.2226154 1.54463688 51.95263672 7.2746582 C56.30869163 13.32473447 57.658437 19.24377944 56.61669922 26.66918945 C54.70636446 33.95079013 49.83807078 37.92294811 43.57763672 41.7121582 C36.89155413 43.14489019 30.76355363 43.06879472 24.75732422 39.58325195 C18.51255115 35.05511564 15.72928062 28.971373 12.45263672 22.15356445 C8.43541519 14.44342835 3.74850243 10.96209243 -4.42236328 8.0871582 C-5.28861328 7.8190332 -6.15486328 7.5509082 -7.04736328 7.2746582 C-6.24630961 2.20131826 -5.37335991 0.03366859 0 0 Z " fill="#DD6123" transform="translate(185.04736328125,9.725341796875)"/>
<path d="M0 0 C3.625 0.25 3.625 0.25 5.18847656 1.42553711 C6.99273628 3.71704507 8.05654945 6.02071965 9.234375 8.69140625 C9.73501465 9.81683838 10.2356543 10.94227051 10.75146484 12.10180664 C11.29302139 13.3385389 11.83418939 14.57544137 12.375 15.8125 C12.93783245 17.08932362 13.50115592 18.36593089 14.06494141 19.64233398 C14.96109113 21.67227941 15.85629908 23.70261251 16.74856567 25.73426819 C18.73247899 30.24796753 20.74706617 34.74668802 22.78344727 39.23695374 C24.18780129 42.33566088 25.58281241 45.43852784 26.97668457 48.54196167 C27.65772093 50.05304919 28.34252667 51.56244364 29.03112793 53.07009888 C29.99775482 55.1891726 30.94963625 57.31430397 31.8984375 59.44140625 C32.19046051 60.07248291 32.48248352 60.70355957 32.78335571 61.35375977 C33.94286743 63.98644268 34.68813997 65.7853366 34.29541016 68.67553711 C33.96355713 69.45489624 33.96355713 69.45489624 33.625 70.25 C30.8125 70.9375 30.8125 70.9375 27.625 71.25 C24.18871325 68.86965553 22.97504202 64.91936125 21.4375 61.1875 C21.16486328 60.55005859 20.89222656 59.91261719 20.61132812 59.25585938 C18.625 54.53148496 18.625 54.53148496 18.625 52.25 C6.745 52.25 -5.135 52.25 -17.375 52.25 C-18.365 55.22 -19.355 58.19 -20.375 61.25 C-21.7265625 64.0625 -21.7265625 64.0625 -23 66.25 C-23.42539062 66.9925 -23.85078125 67.735 -24.2890625 68.5 C-25.375 70.25 -25.375 70.25 -26.375 71.25 C-28.8125 71.4375 -28.8125 71.4375 -31.375 71.25 C-32.035 70.59 -32.695 69.93 -33.375 69.25 C-33.07703498 63.9197927 -30.89056539 59.45875749 -28.69140625 54.6875 C-28.3198642 53.86653336 -27.94832214 53.04556671 -27.56552124 52.19972229 C-26.36292395 49.54669126 -25.1504161 46.89832719 -23.9375 44.25 C-23.11274922 42.43639537 -22.28861282 40.62251121 -21.46508789 38.80834961 C-19.84532257 35.24277207 -18.22176671 31.67896278 -16.59472656 28.11669922 C-14.71561846 24.00091468 -12.84999477 19.87934822 -10.9921875 15.75390625 C-10.09901441 13.77341221 -9.20579131 11.79294072 -8.3125 9.8125 C-7.71514038 8.48508789 -7.71514038 8.48508789 -7.10571289 7.13085938 C-4.00520316 0.29668172 -4.00520316 0.29668172 0 0 Z M-0.375 13.25 C-2.23104731 17.48382315 -4.08233366 21.71968307 -5.92919922 25.95751953 C-6.55842077 27.39949913 -7.18894967 28.84090897 -7.82080078 30.28173828 C-8.72771331 32.35041003 -9.62993595 34.42107151 -10.53125 36.4921875 C-10.81560913 37.13807831 -11.09996826 37.78396912 -11.39294434 38.44943237 C-12.8882695 41.72869966 -12.8882695 41.72869966 -13.375 45.25 C-4.135 45.25 5.105 45.25 14.625 45.25 C12.10591576 37.66857879 12.10591576 37.66857879 9.14453125 30.33984375 C8.70302734 29.33115234 8.26152344 28.32246094 7.80664062 27.28320312 C7.35482422 26.26162109 6.90300781 25.24003906 6.4375 24.1875 C5.97408203 23.13111328 5.51066406 22.07472656 5.03320312 20.98632812 C3.9006523 18.40598036 2.76452397 15.82727399 1.625 13.25 C0.965 13.25 0.305 13.25 -0.375 13.25 Z " fill="#E3E3E3" transform="translate(287.375,56.75)"/>
<path d="M0 0 C1.26481201 0.00241699 1.26481201 0.00241699 2.55517578 0.00488281 C10.54249604 0.16207106 16.0769259 2.17115554 22.875 6.25 C24.75 8.375 24.75 8.375 25.125 11.5625 C24.75 14.375 24.75 14.375 23.75 15.375 C19.46270117 15.84473883 17.23921029 14.77053999 13.6875 12.4375 C7.41214402 8.34739895 2.17841141 7.73501379 -5.25 8.375 C-8.71926685 9.25198939 -11.42573722 10.68368283 -14.1875 13 C-15.81840245 16.64554665 -16.28879497 20.49318723 -15.25 24.375 C-10.38290953 29.98434828 -2.11981624 30.85649242 4.75976562 32.64257812 C11.99558436 34.61270447 18.52567254 36.83864085 23.6875 42.5 C26.22603748 46.97977202 26.31798228 51.36864189 25.75 56.375 C24.13832427 61.82168726 21.38611871 65.20928921 16.7265625 68.3671875 C10.98130695 71.29658657 5.82276361 71.73055869 -0.5 71.6875 C-1.7669873 71.68012817 -1.7669873 71.68012817 -3.05957031 71.67260742 C-12.50147943 71.49523052 -20.07574295 69.78603821 -27.25 63.375 C-28.3125 60.6875 -28.3125 60.6875 -28.25 58.375 C-26.25 56.375 -26.25 56.375 -24.125 55.9375 C-20.47457705 56.49299914 -18.32529034 58.12532124 -15.27734375 60.12890625 C-9.16828959 63.88379696 -2.20882524 64.04018182 4.75 63.375 C8.26752327 62.50199151 10.93085568 61.08844828 13.6875 58.6875 C15.21891913 55.35441131 15.97022606 51.90469345 14.75 48.375 C8.9113948 43.18291837 1.08260209 42.0635166 -6.30859375 40.1953125 C-14.15575466 38.07392732 -20.37012528 35.33482775 -25.25 28.625 C-26.97679997 23.0129001 -27.00920151 17.79495481 -25.25 12.1875 C-18.59970887 2.83552809 -11.1719772 -0.02205721 0 0 Z " fill="#E3E3E3" transform="translate(456.25,56.625)"/>
<path d="M0 0 C1.26481201 0.00241699 1.26481201 0.00241699 2.55517578 0.00488281 C10.54249604 0.16207106 16.0769259 2.17115554 22.875 6.25 C24.75 8.375 24.75 8.375 25.125 11.5625 C24.75 14.375 24.75 14.375 23.75 15.375 C19.46270117 15.84473883 17.23921029 14.77053999 13.6875 12.4375 C7.41214402 8.34739895 2.17841141 7.73501379 -5.25 8.375 C-8.71926685 9.25198939 -11.42573722 10.68368283 -14.1875 13 C-15.81840245 16.64554665 -16.28879497 20.49318723 -15.25 24.375 C-10.38290953 29.98434828 -2.11981624 30.85649242 4.75976562 32.64257812 C11.99558436 34.61270447 18.52567254 36.83864085 23.6875 42.5 C26.22690019 46.98129445 26.21456226 51.36805123 25.75 56.375 C24.02269639 61.26902691 21.01192366 65.38579225 16.75 68.375 C10.84678757 71.05654537 5.94912064 71.8938852 -0.5 71.8125 C-1.32902832 71.80637695 -2.15805664 71.80025391 -3.01220703 71.79394531 C-11.31288361 71.58412848 -18.31028407 69.76972929 -25.4375 65.4375 C-27.54695518 63.03708549 -28.08293698 61.54919739 -28.25 58.375 C-27.92 57.715 -27.59 57.055 -27.25 56.375 C-21.9505243 55.71256554 -19.46348743 57.3173612 -15.2421875 60.12890625 C-9.18450783 63.91792549 -2.17373406 64.03682752 4.75 63.375 C8.26752327 62.50199151 10.93085568 61.08844828 13.6875 58.6875 C15.21891913 55.35441131 15.97022606 51.90469345 14.75 48.375 C8.9113948 43.18291837 1.08260209 42.0635166 -6.30859375 40.1953125 C-14.15575466 38.07392732 -20.37012528 35.33482775 -25.25 28.625 C-26.97679997 23.0129001 -27.00920151 17.79495481 -25.25 12.1875 C-18.59970887 2.83552809 -11.1719772 -0.02205721 0 0 Z " fill="#E4E4E4" transform="translate(375.25,56.625)"/>
<path d="M0 0 C1.25804443 0.00918457 1.25804443 0.00918457 2.54150391 0.01855469 C11.01376487 0.23221015 18.60346111 2.1572018 24.6875 8.4375 C25.96443153 11.44741004 25.75255018 12.24234947 24.6875 15.4375 C19.47699973 16.07292686 17.33059969 14.70709606 13.390625 11.68359375 C7.88974044 7.65886399 1.21698529 7.82151082 -5.3125 8.4375 C-8.83038773 9.30902011 -11.49345009 10.72413395 -14.25 13.125 C-15.80044548 16.49949898 -16.32126728 19.87363139 -15.3125 23.4375 C-11.13871926 29.33898954 -5.24083825 30.23498013 1.5 31.9375 C10.28068102 34.17960426 17.80441111 36.36025667 24.1875 43.0625 C26.35561191 47.9407518 26.54405547 52.18644257 25.6875 57.4375 C23.47679825 63.09125214 20.06066823 66.58643114 14.6875 69.4375 C9.53565534 71.57062552 4.92618032 71.7873785 -0.5625 71.75 C-1.8294873 71.74262817 -1.8294873 71.74262817 -3.12207031 71.73510742 C-12.43868055 71.5600844 -20.33781208 69.95731697 -27.3125 63.4375 C-27.8125 60.1875 -27.8125 60.1875 -27.3125 57.4375 C-26.3125 56.4375 -26.3125 56.4375 -24.25 56.0625 C-21.15622025 56.45745061 -19.98732604 57.1291197 -17.4375 58.8125 C-9.65571849 63.92789827 -1.71588708 64.31025794 7.32421875 63.078125 C9.82366063 62.48244481 11.58787241 61.92260244 13.6875 60.4375 C15.84380869 56.48299749 16.0868087 52.93490764 14.9375 48.625 C9.83524293 43.6644723 2.66775662 42.40983502 -4.04443359 40.68408203 C-20.34151955 36.45102951 -20.34151955 36.45102951 -25.3125 28.0625 C-27.19726969 21.23020987 -27.00733807 16.40128918 -23.57421875 10.2578125 C-17.80109974 1.9287925 -9.46344331 -0.11704239 0 0 Z " fill="#E5E5E5" transform="translate(582.3125,56.5625)"/>
<path d="M0 0 C1.13787964 -0.00315216 2.27575928 -0.00630432 3.44812012 -0.009552 C4.6866272 -0.00752777 5.92513428 -0.00550354 7.20117188 -0.00341797 C8.46255981 -0.00437469 9.72394775 -0.00533142 11.02355957 -0.00631714 C13.69689325 -0.00699922 16.37013624 -0.00564076 19.04345703 -0.00097656 C22.47698878 0.00472073 25.91044237 0.00144152 29.34397125 -0.00454903 C32.6088743 -0.00902309 35.87376781 -0.0058943 39.13867188 -0.00341797 C40.37717896 -0.0054422 41.61568604 -0.00746643 42.89172363 -0.009552 C44.02960327 -0.00639984 45.16748291 -0.00324768 46.33984375 0 C47.34720581 0.00079559 48.35456787 0.00159119 49.39245605 0.00241089 C51.66992188 0.12939453 51.66992188 0.12939453 52.66992188 1.12939453 C52.79492188 3.62939453 52.79492188 3.62939453 52.66992188 6.12939453 C51.66992188 7.12939453 51.66992188 7.12939453 49.35327148 7.24291992 C48.35303955 7.23768311 47.35280762 7.23244629 46.32226562 7.22705078 C45.24267578 7.22382812 44.16308594 7.22060547 43.05078125 7.21728516 C41.91447266 7.20890625 40.77816406 7.20052734 39.60742188 7.19189453 C38.46724609 7.18738281 37.32707031 7.18287109 36.15234375 7.17822266 C33.32481836 7.16639201 30.49739548 7.14990863 27.66992188 7.12939453 C27.6743631 7.88916595 27.67880432 8.64893738 27.68338013 9.43173218 C27.72341282 16.5831477 27.75388376 23.73450908 27.77354622 30.88600731 C27.78399462 34.56288803 27.7981729 38.23967636 27.82080078 41.91650391 C27.84249178 45.46319108 27.85448254 49.00978925 27.85967636 52.55653763 C27.86337888 53.91136705 27.87060877 55.26619147 27.88138199 56.62098312 C27.89584635 58.5148521 27.89673836 60.40881018 27.89697266 62.30273438 C27.90141388 63.3819516 27.9058551 64.46116882 27.91043091 65.5730896 C27.66992188 68.12939453 27.66992188 68.12939453 25.66992188 70.12939453 C23.16992188 70.37939453 23.16992188 70.37939453 20.66992188 70.12939453 C18.66992188 68.12939453 18.66992188 68.12939453 18.42941284 65.5730896 C18.43607468 63.95426376 18.43607468 63.95426376 18.44287109 62.30273438 C18.44302216 61.08161957 18.44317322 59.86050476 18.44332886 58.60238647 C18.45354285 57.26503335 18.46397485 55.92768188 18.47460938 54.59033203 C18.47833907 53.22555752 18.48118625 51.86078034 18.48318481 50.4960022 C18.49082474 46.9021873 18.51047616 43.3085338 18.53259277 39.71478271 C18.55304356 36.04832137 18.56218488 32.38183396 18.57226562 28.71533203 C18.59372184 21.51994591 18.62786195 14.32469283 18.66992188 7.12939453 C17.58723022 7.13724976 17.58723022 7.13724976 16.48266602 7.14526367 C13.23259339 7.16596811 9.98253459 7.17903371 6.73242188 7.19189453 C5.02795898 7.20446289 5.02795898 7.20446289 3.2890625 7.21728516 C2.20947266 7.22050781 1.12988281 7.22373047 0.01757812 7.22705078 C-1.48276978 7.23490601 -1.48276978 7.23490601 -3.01342773 7.24291992 C-5.33007812 7.12939453 -5.33007812 7.12939453 -6.33007812 6.12939453 C-6.45507812 3.62939453 -6.45507812 3.62939453 -6.33007812 1.12939453 C-4.61184722 -0.58883637 -2.34410064 0.00185132 0 0 Z " fill="#F2F2F2" transform="translate(638.330078125,57.87060546875)"/>
<path d="M0 0 C3.5 0.125 3.5 0.125 4.5 1.125 C4.60474558 3.23094428 4.63856457 5.34043766 4.64526367 7.44897461 C4.65030159 8.43923897 4.65030159 8.43923897 4.65544128 9.44950867 C4.66497695 11.64213925 4.6668957 13.83469369 4.66796875 16.02734375 C4.67117955 17.5457004 4.67454349 19.06405673 4.67805481 20.58241272 C4.68405265 23.76938596 4.68589404 26.95633206 4.68530273 30.14331055 C4.68520108 34.233696 4.69885343 38.32390797 4.71607494 42.41425228 C4.72717571 45.55144556 4.72922254 48.68859666 4.72869301 51.82580757 C4.72987603 53.3341386 4.73431575 54.84247061 4.74202538 56.35078239 C4.75178662 58.45785659 4.74896282 60.56455098 4.74291992 62.67163086 C4.74434494 63.87218613 4.74576996 65.07274139 4.74723816 66.30967712 C4.5 69.125 4.5 69.125 2.5 71.125 C0 71.375 0 71.375 -2.5 71.125 C-4.5 69.125 -4.5 69.125 -4.74723816 66.30967712 C-4.74581314 65.10912186 -4.74438812 63.90856659 -4.74291992 62.67163086 C-4.74481827 62.0097023 -4.74671661 61.34777374 -4.74867249 60.66578674 C-4.75238302 58.473686 -4.74167337 56.28191514 -4.73046875 54.08984375 C-4.72927711 52.57052143 -4.72882375 51.05119837 -4.7290802 49.53187561 C-4.72751492 46.346643 -4.71922117 43.16152272 -4.70581055 39.97631836 C-4.68880618 35.8847829 -4.68499658 31.79337081 -4.68575573 27.70180416 C-4.68548439 24.56464959 -4.68000919 21.42752221 -4.67275429 18.29037666 C-4.66956295 16.7812273 -4.66759913 15.27207484 -4.66686058 13.76292229 C-4.66470272 11.65821914 -4.65597109 9.55364932 -4.64526367 7.44897461 C-4.64145187 6.24921494 -4.63764008 5.04945526 -4.63371277 3.81333923 C-4.43205855 -0.24098515 -4.18966202 0.14963079 0 0 Z " fill="#F4F4F4" transform="translate(518.5,56.875)"/>
<path d="M0 0 C2.13794422 -0.00960226 4.27488366 -0.04055909 6.41259766 -0.07226562 C13.92320637 -0.12902418 20.20759908 0.28559979 27.17431641 3.24023438 C27.17431641 3.57023438 27.17431641 3.90023438 27.17431641 4.24023438 C26.17327881 4.07724854 25.17224121 3.9142627 24.14086914 3.74633789 C20.27413879 3.25297099 16.60481357 3.12641488 12.70947266 3.14257812 C12.0312999 3.14399307 11.35312714 3.14540802 10.65440369 3.14686584 C8.51516062 3.15240693 6.37602716 3.16494784 4.23681641 3.17773438 C2.77522939 3.18275701 1.31364071 3.18731857 -0.14794922 3.19140625 C-3.70722886 3.20235693 -7.26644551 3.21957993 -10.82568359 3.24023438 C-10.82568359 5.55023438 -10.82568359 7.86023438 -10.82568359 10.24023438 C-12.88818359 7.99023438 -12.88818359 7.99023438 -14.82568359 5.24023438 C-14.18646467 -2.43039276 -5.90454925 0.01603408 0 0 Z " fill="#661F12" transform="translate(115.82568359375,9.759765625)"/>
<path d="M0 0 C0.66 0 1.32 0 2 0 C1.67 0.99 1.34 1.98 1 3 C0.88237799 5.13091056 0.8231306 7.26520525 0.79467773 9.39916992 C0.78477814 10.04334366 0.77487854 10.6875174 0.76467896 11.35121155 C0.73312533 13.4775934 0.70833095 15.60399758 0.68359375 17.73046875 C0.66301891 19.20592322 0.6420223 20.68137186 0.62062073 22.15681458 C0.56545474 26.03819051 0.51602138 29.91961915 0.46777344 33.80108643 C0.41751842 37.76262091 0.36185324 41.72407894 0.30664062 45.68554688 C0.19912601 53.45696649 0.09766623 61.22844972 0 69 C-0.33 69 -0.66 69 -1 69 C-1.02312589 60.1511761 -1.04091634 51.30236253 -1.05181217 42.45351505 C-1.05704046 38.34505715 -1.06413713 34.23661986 -1.07543945 30.12817383 C-1.08627025 26.16653172 -1.09227724 22.20490948 -1.09487724 18.24325371 C-1.09673114 16.72851689 -1.1003511 15.21378121 -1.10573006 13.69905281 C-1.11294307 11.58458187 -1.11399083 9.47019406 -1.11352539 7.35571289 C-1.115746 6.14992081 -1.11796661 4.94412872 -1.12025452 3.70179749 C-1 1 -1 1 0 0 Z " fill="#B9B9B9" transform="translate(515,57)"/>
<path d="M0 0 C0.33 1.32 0.66 2.64 1 4 C2.093125 4.0825 3.18625 4.165 4.3125 4.25 C8 5 8 5 11 9 C7.37 8.01 3.74 7.02 0 6 C-0.33 4.35 -0.66 2.7 -1 1 C-0.67 0.67 -0.34 0.34 0 0 Z " fill="#6B2911" transform="translate(179,12)"/>
<path d="M0 0 C0.99 0.33 1.98 0.66 3 1 C-0.465 3.97 -0.465 3.97 -4 7 C-3.04065919 3.16263678 -2.76390737 2.40339772 0 0 Z " fill="#CBCBCB" transform="translate(564,61)"/>
</svg>
