<svg xmlns="http://www.w3.org/2000/svg" xml:space="preserve" width="2048" height="2048" style="shape-rendering:geometricPrecision;text-rendering:geometricPrecision;image-rendering:optimizeQuality;fill-rule:evenodd;clip-rule:evenodd"><defs><style>.fil0,.fil1{fill:#424242}.fil0{fill-rule:nonzero}</style></defs><g id="Layer_x0020_1"><g id="_246795176"><path id="_246795680" class="fil0" d="M701.436 770.153c84.302-24.647 283.445-88.877 371.475-168.637l-.094-.105c13.233-11.993 33.683-10.987 45.676 2.246a32.217 32.217 0 0 1 8.377 21.715v766.076c0 17.858-14.48 32.337-32.338 32.337-9.284 0-17.654-3.915-23.552-10.181-88.964-78.969-285.847-142.465-369.544-166.937V770.153zm-34.642 466.759H505.84c-61.286 0-116.98-25.05-157.336-65.405-40.355-40.356-65.405-96.048-65.405-157.336v-11.524c0-61.286 25.05-116.98 65.405-157.336 40.355-40.355 96.05-65.405 157.336-65.405h160.955v457.005z"/><path id="_246795872" class="fil0" d="M1159.21 1144.93c19.83-7.36 37.623-18.914 52.298-33.588 26.345-26.343 42.643-62.74 42.643-102.937 0-40.199-16.298-76.595-42.643-102.938-14.675-14.674-32.467-26.229-52.298-33.588v273.05z"/><path id="_246795608" class="fil0" d="M472.845 1172.24h124.194c17.858 0 32.337 14.478 32.337 32.337v317.8c0 17.858-14.479 32.337-32.337 32.337H472.845c-17.858 0-32.337-14.48-32.337-32.338v-317.799c0-17.86 14.479-32.337 32.337-32.337z"/><path id="_246795464" class="fil0" d="m1579.06 296.177 119.293 206.62-20.937 12.126 21.004-12.126c6.697 11.6 2.723 26.433-8.878 33.13a24.48 24.48 0 0 1-2 1.033l-354.097 204.438.052.091c-11.6 6.697-26.433 2.723-33.13-8.877a24.696 24.696 0 0 1-1.033-2l-118.146-204.638 12.731 1.766.017-.054 242.747 33.674c18.767 2.603 37.41-6.633 44.682-24.538l2.973-7.32-.02-.032 94.588-232.91.154-.383z"/><path id="_246794720" class="fil0" d="m1563.93 290.477-97.56 240.23.019.03c-4.489 11.055-16.206 17.003-27.482 14.609l-256.331-35.559-.017.055c-13.266-1.84-22.53-14.089-20.69-27.355 1.15-8.302 6.379-15.038 13.383-18.464l354.557-204.703 12.126 20.936-12.126-21.003c11.6-6.697 26.433-2.723 33.13 8.877 4.104 7.107 4.198 15.427.992 22.346z"/><path id="_246794648" class="fil1" d="M1740.65 848.673h-411.126c-13.394 0-24.253 10.858-24.253 24.252v270.969c0 13.393 10.86 24.252 24.253 24.252h411.126c13.394 0 24.253-10.859 24.253-24.252v-270.97c0-13.393-10.86-24.251-24.253-24.251zm-276.489 93.767c0-13.394 10.858-24.253 24.252-24.253a24.145 24.145 0 0 1 15.176 5.336l92.1 65.086.072-.007c10.938 7.729 13.539 22.865 5.81 33.803a24.195 24.195 0 0 1-7.124 6.682l-92.063 65.06.026.037c-10.938 7.73-26.073 5.129-33.802-5.81a24.127 24.127 0 0 1-4.447-14.12V942.44z"/><path id="_246795320" class="fil1" d="m1688.08 1511.3-354.58-204.717v-.067c-11.6-6.697-26.433-2.723-33.13 8.877-.277.483-.536.972-.778 1.463l-134.64 233.203h-.066c-6.697 11.6-2.723 26.433 8.877 33.13.656.38 1.325.722 2 1.034l354.098 204.438-.054.09c11.601 6.697 26.434 2.723 33.13-8.877.38-.656.723-1.325 1.034-2l134.36-232.718.09.052c6.698-11.6 2.723-26.434-8.878-33.13-.482-.278-.97-.537-1.463-.779zm-157.851 35.378c-11.563-6.697-15.508-21.5-8.811-33.063 6.697-11.563 21.5-15.508 33.064-8.811l47.631 27.5c11.563 6.696 15.507 21.5 8.81 33.063-6.697 11.563-21.5 15.508-33.062 8.81l-47.632-27.5zm-98.575-72.572c20.3 0 38.684 8.232 51.989 21.537 13.306 13.307 21.537 31.69 21.537 51.99s-8.231 38.684-21.537 51.99c-13.305 13.305-31.688 21.537-51.989 21.537-20.3 0-38.685-8.232-51.99-21.537-13.305-13.306-21.537-31.69-21.537-51.99s8.232-38.683 21.537-51.99c13.305-13.305 31.69-21.537 51.99-21.537z"/></g></g><path style="fill:none" d="M0 0h2048v2048H0z"/></svg>